<mxfile host="app.diagrams.net" modified="2022-08-11T09:45:01.787Z" agent="5.0 (Windows NT 10.0; Win64; x64) AppleWebKit/537.36 (KHTML, like Gecko) Chrome/104.0.0.0 Safari/537.36" etag="UDfKQkK4ytFkfbEQv7Rk" version="20.2.3" type="github">
  <diagram id="ITOzYoMyeNb6q9elURos" name="Page-1">
    <mxGraphModel dx="868" dy="450" grid="1" gridSize="10" guides="1" tooltips="1" connect="1" arrows="1" fold="1" page="1" pageScale="1" pageWidth="850" pageHeight="1100" math="0" shadow="0">
      <root>
        <mxCell id="0" />
        <mxCell id="1" parent="0" />
        <mxCell id="-Dlacv3P44qr89EgZJGO-1" value="&lt;font style=&quot;font-size: 14px;&quot;&gt;&lt;b&gt;worker node 1&lt;/b&gt;&lt;/font&gt;" style="rounded=1;whiteSpace=wrap;html=1;arcSize=0;" parent="1" vertex="1">
          <mxGeometry x="200" y="110" width="390" height="70" as="geometry" />
        </mxCell>
        <mxCell id="-Dlacv3P44qr89EgZJGO-2" value="&lt;b&gt;&lt;font style=&quot;font-size: 14px;&quot;&gt;worker node 16&lt;/font&gt;&lt;/b&gt;" style="rounded=1;whiteSpace=wrap;html=1;arcSize=0;" parent="1" vertex="1">
          <mxGeometry x="210" y="410" width="400" height="70" as="geometry" />
        </mxCell>
        <mxCell id="-Dlacv3P44qr89EgZJGO-4" value="&lt;b&gt;springapp&lt;/b&gt;" style="rounded=1;whiteSpace=wrap;html=1;fontSize=14;" parent="1" vertex="1">
          <mxGeometry x="400" y="390" width="90" height="20" as="geometry" />
        </mxCell>
        <mxCell id="-Dlacv3P44qr89EgZJGO-9" value="&lt;b&gt;webapp&lt;/b&gt;" style="rounded=1;whiteSpace=wrap;html=1;fontSize=14;" parent="1" vertex="1">
          <mxGeometry x="210" y="390" width="80" height="20" as="geometry" />
        </mxCell>
        <mxCell id="-Dlacv3P44qr89EgZJGO-11" value="&lt;b&gt;springapp&lt;/b&gt;" style="rounded=1;whiteSpace=wrap;html=1;fontSize=14;" parent="1" vertex="1">
          <mxGeometry x="300" y="390" width="90" height="20" as="geometry" />
        </mxCell>
        <mxCell id="-Dlacv3P44qr89EgZJGO-12" value="db" style="shape=cylinder3;whiteSpace=wrap;html=1;boundedLbl=1;backgroundOutline=1;size=15;fontSize=14;" parent="1" vertex="1">
          <mxGeometry x="530" y="330" width="60" height="80" as="geometry" />
        </mxCell>
        <mxCell id="-Dlacv3P44qr89EgZJGO-13" value="&lt;b&gt;webapp&lt;/b&gt;" style="rounded=1;whiteSpace=wrap;html=1;fontSize=14;" parent="1" vertex="1">
          <mxGeometry x="200" y="90" width="80" height="20" as="geometry" />
        </mxCell>
        <mxCell id="-Dlacv3P44qr89EgZJGO-15" value="&lt;font style=&quot;font-size: 12px;&quot;&gt;kubeproxy&lt;/font&gt;" style="rounded=0;whiteSpace=wrap;html=1;fontSize=14;" parent="1" vertex="1">
          <mxGeometry x="520" y="160" width="70" height="20" as="geometry" />
        </mxCell>
        <mxCell id="-Dlacv3P44qr89EgZJGO-16" value="&lt;font style=&quot;font-size: 12px;&quot;&gt;kubeproxy&lt;/font&gt;" style="rounded=0;whiteSpace=wrap;html=1;fontSize=14;" parent="1" vertex="1">
          <mxGeometry x="530" y="460" width="70" height="20" as="geometry" />
        </mxCell>
        <mxCell id="-Dlacv3P44qr89EgZJGO-17" value="&lt;font style=&quot;font-size: 12px;&quot;&gt;kubelet&lt;/font&gt;" style="rounded=0;whiteSpace=wrap;html=1;fontSize=14;" parent="1" vertex="1">
          <mxGeometry x="200" y="160" width="70" height="20" as="geometry" />
        </mxCell>
        <mxCell id="-Dlacv3P44qr89EgZJGO-18" value="Master" style="rounded=1;whiteSpace=wrap;html=1;fontSize=12;" parent="1" vertex="1">
          <mxGeometry x="40" y="260" width="120" height="30" as="geometry" />
        </mxCell>
        <mxCell id="-Dlacv3P44qr89EgZJGO-20" value="path: /tmp/mongodb" style="text;html=1;strokeColor=none;fillColor=none;align=center;verticalAlign=middle;whiteSpace=wrap;rounded=0;fontSize=12;" parent="1" vertex="1">
          <mxGeometry x="210" y="460" width="130" height="20" as="geometry" />
        </mxCell>
        <mxCell id="-Dlacv3P44qr89EgZJGO-21" value="" style="endArrow=classic;html=1;rounded=0;fontSize=12;exitX=0.667;exitY=0.067;exitDx=0;exitDy=0;exitPerimeter=0;entryX=0.25;entryY=1;entryDx=0;entryDy=0;" parent="1" source="-Dlacv3P44qr89EgZJGO-18" target="-Dlacv3P44qr89EgZJGO-17" edge="1">
          <mxGeometry width="50" height="50" relative="1" as="geometry">
            <mxPoint x="450" y="300" as="sourcePoint" />
            <mxPoint x="500" y="250" as="targetPoint" />
          </mxGeometry>
        </mxCell>
        <mxCell id="-Dlacv3P44qr89EgZJGO-22" value="&lt;font style=&quot;font-size: 12px;&quot;&gt;kubelet&lt;/font&gt;" style="rounded=0;whiteSpace=wrap;html=1;fontSize=14;" parent="1" vertex="1">
          <mxGeometry x="210" y="410" width="70" height="20" as="geometry" />
        </mxCell>
        <mxCell id="-Dlacv3P44qr89EgZJGO-23" value="" style="endArrow=classic;html=1;rounded=0;fontSize=12;exitX=0.4;exitY=0.967;exitDx=0;exitDy=0;exitPerimeter=0;entryX=0;entryY=0.5;entryDx=0;entryDy=0;" parent="1" source="-Dlacv3P44qr89EgZJGO-18" target="-Dlacv3P44qr89EgZJGO-22" edge="1">
          <mxGeometry width="50" height="50" relative="1" as="geometry">
            <mxPoint x="450" y="300" as="sourcePoint" />
            <mxPoint x="500" y="250" as="targetPoint" />
          </mxGeometry>
        </mxCell>
        <mxCell id="-Dlacv3P44qr89EgZJGO-24" value="Cluster IP service webapp svc" style="rhombus;whiteSpace=wrap;html=1;fontSize=12;" parent="1" vertex="1">
          <mxGeometry x="50" y="70" width="120" height="110" as="geometry" />
        </mxCell>
        <mxCell id="-Dlacv3P44qr89EgZJGO-25" value="Cluster IP service webapp svc" style="rhombus;whiteSpace=wrap;html=1;fontSize=12;" parent="1" vertex="1">
          <mxGeometry x="650" y="80" width="120" height="110" as="geometry" />
        </mxCell>
        <mxCell id="-Dlacv3P44qr89EgZJGO-36" style="edgeStyle=orthogonalEdgeStyle;rounded=0;orthogonalLoop=1;jettySize=auto;html=1;exitX=0;exitY=0.5;exitDx=0;exitDy=0;fontSize=12;" parent="1" source="-Dlacv3P44qr89EgZJGO-26" edge="1">
          <mxGeometry relative="1" as="geometry">
            <mxPoint x="690" y="400" as="targetPoint" />
          </mxGeometry>
        </mxCell>
        <mxCell id="-Dlacv3P44qr89EgZJGO-26" value="Cluster IP service mongo svc" style="rhombus;whiteSpace=wrap;html=1;fontSize=12;" parent="1" vertex="1">
          <mxGeometry x="670" y="315" width="120" height="110" as="geometry" />
        </mxCell>
        <mxCell id="-Dlacv3P44qr89EgZJGO-27" value="" style="endArrow=classic;html=1;rounded=0;fontSize=12;exitX=0.1;exitY=0.618;exitDx=0;exitDy=0;exitPerimeter=0;" parent="1" source="-Dlacv3P44qr89EgZJGO-25" target="-Dlacv3P44qr89EgZJGO-4" edge="1">
          <mxGeometry width="50" height="50" relative="1" as="geometry">
            <mxPoint x="690" y="178" as="sourcePoint" />
            <mxPoint x="500" y="240" as="targetPoint" />
          </mxGeometry>
        </mxCell>
        <mxCell id="-Dlacv3P44qr89EgZJGO-28" value="&lt;b&gt;springapp&lt;/b&gt;" style="rounded=1;whiteSpace=wrap;html=1;fontSize=14;" parent="1" vertex="1">
          <mxGeometry x="490" y="90" width="90" height="20" as="geometry" />
        </mxCell>
        <mxCell id="-Dlacv3P44qr89EgZJGO-29" value="" style="endArrow=classic;html=1;rounded=0;fontSize=12;entryX=1;entryY=0.5;entryDx=0;entryDy=0;" parent="1" target="-Dlacv3P44qr89EgZJGO-28" edge="1">
          <mxGeometry width="50" height="50" relative="1" as="geometry">
            <mxPoint x="660" y="150" as="sourcePoint" />
            <mxPoint x="500" y="240" as="targetPoint" />
          </mxGeometry>
        </mxCell>
        <mxCell id="-Dlacv3P44qr89EgZJGO-30" value="Actor" style="shape=umlActor;verticalLabelPosition=bottom;verticalAlign=top;html=1;outlineConnect=0;fontSize=12;" parent="1" vertex="1">
          <mxGeometry x="650" y="560" width="30" height="60" as="geometry" />
        </mxCell>
        <mxCell id="-Dlacv3P44qr89EgZJGO-31" value="" style="endArrow=classic;html=1;rounded=0;fontSize=12;entryX=0.75;entryY=1;entryDx=0;entryDy=0;" parent="1" source="-Dlacv3P44qr89EgZJGO-30" target="-Dlacv3P44qr89EgZJGO-16" edge="1">
          <mxGeometry width="50" height="50" relative="1" as="geometry">
            <mxPoint x="450" y="490" as="sourcePoint" />
            <mxPoint x="500" y="440" as="targetPoint" />
          </mxGeometry>
        </mxCell>
        <mxCell id="-Dlacv3P44qr89EgZJGO-32" value="" style="endArrow=classic;html=1;rounded=0;fontSize=12;exitX=1;exitY=0;exitDx=0;exitDy=0;entryX=0.45;entryY=0.982;entryDx=0;entryDy=0;entryPerimeter=0;" parent="1" source="-Dlacv3P44qr89EgZJGO-16" target="-Dlacv3P44qr89EgZJGO-25" edge="1">
          <mxGeometry width="50" height="50" relative="1" as="geometry">
            <mxPoint x="450" y="490" as="sourcePoint" />
            <mxPoint x="500" y="440" as="targetPoint" />
          </mxGeometry>
        </mxCell>
        <mxCell id="-Dlacv3P44qr89EgZJGO-33" value="" style="endArrow=classic;html=1;rounded=0;fontSize=12;exitX=0.083;exitY=0.636;exitDx=0;exitDy=0;exitPerimeter=0;" parent="1" source="-Dlacv3P44qr89EgZJGO-25" target="-Dlacv3P44qr89EgZJGO-11" edge="1">
          <mxGeometry width="50" height="50" relative="1" as="geometry">
            <mxPoint x="450" y="390" as="sourcePoint" />
            <mxPoint x="500" y="340" as="targetPoint" />
          </mxGeometry>
        </mxCell>
        <mxCell id="-Dlacv3P44qr89EgZJGO-34" value="" style="endArrow=classic;html=1;rounded=0;fontSize=12;entryX=1;entryY=0.5;entryDx=0;entryDy=0;entryPerimeter=0;" parent="1" source="-Dlacv3P44qr89EgZJGO-26" target="-Dlacv3P44qr89EgZJGO-12" edge="1">
          <mxGeometry width="50" height="50" relative="1" as="geometry">
            <mxPoint x="450" y="390" as="sourcePoint" />
            <mxPoint x="500" y="340" as="targetPoint" />
          </mxGeometry>
        </mxCell>
        <mxCell id="-Dlacv3P44qr89EgZJGO-37" value="" style="endArrow=classic;html=1;rounded=0;fontSize=12;" parent="1" target="-Dlacv3P44qr89EgZJGO-26" edge="1">
          <mxGeometry width="50" height="50" relative="1" as="geometry">
            <mxPoint x="450" y="390" as="sourcePoint" />
            <mxPoint x="590" y="310" as="targetPoint" />
            <Array as="points">
              <mxPoint x="610" y="270" />
            </Array>
          </mxGeometry>
        </mxCell>
        <mxCell id="-Dlacv3P44qr89EgZJGO-38" value="" style="endArrow=classic;html=1;rounded=0;fontSize=12;exitX=0.75;exitY=0;exitDx=0;exitDy=0;" parent="1" source="-Dlacv3P44qr89EgZJGO-11" edge="1">
          <mxGeometry width="50" height="50" relative="1" as="geometry">
            <mxPoint x="380" y="340" as="sourcePoint" />
            <mxPoint x="700" y="340" as="targetPoint" />
            <Array as="points">
              <mxPoint x="640" y="230" />
            </Array>
          </mxGeometry>
        </mxCell>
        <mxCell id="-Dlacv3P44qr89EgZJGO-40" value="" style="endArrow=classic;html=1;rounded=0;fontSize=12;exitX=0.644;exitY=-0.05;exitDx=0;exitDy=0;exitPerimeter=0;" parent="1" source="-Dlacv3P44qr89EgZJGO-28" edge="1">
          <mxGeometry width="50" height="50" relative="1" as="geometry">
            <mxPoint x="450" y="280" as="sourcePoint" />
            <mxPoint x="700" y="340" as="targetPoint" />
            <Array as="points">
              <mxPoint x="800" y="40" />
            </Array>
          </mxGeometry>
        </mxCell>
        <mxCell id="-Dlacv3P44qr89EgZJGO-41" value="" style="endArrow=classic;html=1;rounded=0;fontSize=12;exitX=0.5;exitY=1;exitDx=0;exitDy=0;entryX=0.175;entryY=0.05;entryDx=0;entryDy=0;entryPerimeter=0;" parent="1" source="-Dlacv3P44qr89EgZJGO-24" target="-Dlacv3P44qr89EgZJGO-9" edge="1">
          <mxGeometry width="50" height="50" relative="1" as="geometry">
            <mxPoint x="450" y="280" as="sourcePoint" />
            <mxPoint x="500" y="230" as="targetPoint" />
          </mxGeometry>
        </mxCell>
        <mxCell id="-Dlacv3P44qr89EgZJGO-43" value="" style="endArrow=classic;html=1;rounded=0;fontSize=12;exitX=0.5;exitY=0;exitDx=0;exitDy=0;entryX=0;entryY=0;entryDx=0;entryDy=0;" parent="1" source="-Dlacv3P44qr89EgZJGO-24" target="-Dlacv3P44qr89EgZJGO-13" edge="1">
          <mxGeometry width="50" height="50" relative="1" as="geometry">
            <mxPoint x="450" y="280" as="sourcePoint" />
            <mxPoint x="500" y="230" as="targetPoint" />
          </mxGeometry>
        </mxCell>
        <mxCell id="-Dlacv3P44qr89EgZJGO-44" value="Actor" style="shape=umlActor;verticalLabelPosition=bottom;verticalAlign=top;html=1;outlineConnect=0;fontSize=12;" parent="1" vertex="1">
          <mxGeometry x="90" y="390" width="10" height="40" as="geometry" />
        </mxCell>
        <mxCell id="-Dlacv3P44qr89EgZJGO-45" value="" style="endArrow=classic;html=1;rounded=0;fontSize=12;exitX=0;exitY=1;exitDx=0;exitDy=0;exitPerimeter=0;entryX=0;entryY=0.75;entryDx=0;entryDy=0;" parent="1" source="-Dlacv3P44qr89EgZJGO-44" target="-Dlacv3P44qr89EgZJGO-15" edge="1">
          <mxGeometry width="50" height="50" relative="1" as="geometry">
            <mxPoint x="450" y="280" as="sourcePoint" />
            <mxPoint x="500" y="230" as="targetPoint" />
          </mxGeometry>
        </mxCell>
        <mxCell id="-Dlacv3P44qr89EgZJGO-47" value="" style="endArrow=classic;html=1;rounded=0;fontSize=12;entryX=0.608;entryY=0.927;entryDx=0;entryDy=0;entryPerimeter=0;" parent="1" source="-Dlacv3P44qr89EgZJGO-15" target="-Dlacv3P44qr89EgZJGO-24" edge="1">
          <mxGeometry width="50" height="50" relative="1" as="geometry">
            <mxPoint x="450" y="280" as="sourcePoint" />
            <mxPoint x="500" y="230" as="targetPoint" />
            <Array as="points">
              <mxPoint x="280" y="250" />
            </Array>
          </mxGeometry>
        </mxCell>
      </root>
    </mxGraphModel>
  </diagram>
</mxfile>
